<svg width="113" height="113" viewBox="0 0 113 113" version="1.1" xmlns="http://www.w3.org/2000/svg" xmlns:xlink="http://www.w3.org/1999/xlink"><polygon points="339.93 325.1 349.31 323.58 343.31 316.21 352.21 312.89 344.89 306.83 352.98 301.83 344.61 297.33 351.57 290.85 342.47 288.06 348.04 280.36 338.58 279.39 342.54 270.74 333.07 271.64 335.26 262.39 326.16 265.12 326.5 255.62 318.1 260.07 316.58 250.69 309.21 256.69 305.89 247.8 299.83 255.1 294.83 247.01 290.33 255.38 283.85 248.42 281.06 257.52 273.36 251.95 272.39 261.41 263.74 257.46 264.64 266.92 255.39 264.73 258.12 273.83 248.62 273.5 253.07 281.9 243.69 283.41 249.69 290.78 240.79 294.1 248.11 300.16 240.02 305.16 248.39 309.66 241.43 316.14 250.53 318.93 244.96 326.63 254.42 327.6 250.46 336.25 259.93 335.35 257.74 344.6 266.84 341.87 266.51 351.37 274.91 346.92 276.42 356.3 283.79 350.3 287.11 359.2 293.17 351.88 298.17 359.97 302.67 351.6 309.15 358.56 311.94 349.46 319.64 355.03 320.61 345.57 329.26 349.53 328.36 340.06 337.61 342.25 334.88 333.15 344.38 333.48" transform="translate(-240.000000, -247.000000)" fill="#26282f" id="Page-1" stroke="none" stroke-width="1" fill-rule="evenodd"/></svg>