<svg xmlns="http://www.w3.org/2000/svg" width="48" height="49" viewBox="0 0 48 49"><defs><clipPath id="a"><path fill="#fff" d="M1553 74V25h48v49zm1-24.05a22.95 22.95 0 1 0 45.9 0 22.95 22.95 0 0 0-45.9 0z"/></clipPath></defs><path fill="none" d="M23.95 2a22.95 22.95 0 1 1 0 45.9 22.95 22.95 0 0 1 0-45.9z"/><path fill="none" stroke="#26282f" stroke-linecap="round" stroke-linejoin="round" stroke-miterlimit="50" stroke-width="2" d="M1576.95 27a22.95 22.95 0 1 1 0 45.9 22.95 22.95 0 0 1 0-45.9z" clip-path="url(&quot;#a&quot;)" transform="translate(-1553 -25)"/><path fill="#26282f" d="M11.4 12.6l.7-.7 24.5 24.5-.7.7z"/><path fill="#26282f" d="M36.6 12.6l-.7-.7-24.5 24.5.7.7z"/></svg>