<svg width="21" height="22" viewBox="0 0 21 22" version="1.1" xmlns="http://www.w3.org/2000/svg" xmlns:xlink="http://www.w3.org/1999/xlink"><title>₽</title><desc>Created with Sketch.</desc><defs><path d="M88.6679688,52.0195312 L85.1171875,52.0195312 L84.765625,54 L80.7460938,54 L81.0976562,52.0195312 L78.8242188,52.0195312 L79.3984375,48.8554688 L81.5898438,48.890625 L81.8125,48.1757812 L79.46875,48.2109375 L80.0429688,45.0351562 L82.3046875,45.0351562 L83.7109375,36.9375 L89.8046875,36.9492188 C91.6875094,36.9492188 93.179682,37.4687448 94.28125,38.5078125 C95.382818,39.5468802 95.8750006,40.9023354 95.7578125,42.5742188 C95.6406244,44.2070394 94.966803,45.533198 93.7363281,46.5527344 C92.5058532,47.5722707 90.9179785,48.1249996 88.9726562,48.2109375 L88.5390625,48.2226562 L85.8203125,48.1757812 L85.5976562,48.890625 L89.21875,48.8554688 L88.6679688,52.0195312 Z M86.3125,45.0351562 L88.5625,45.046875 C89.2812536,45.046875 89.8945287,44.9023452 90.4023438,44.6132812 C90.9101588,44.3242173 91.2773426,43.9023465 91.5039062,43.3476562 C91.7304699,42.792966 91.7968755,42.238284 91.703125,41.6835938 C91.6249996,41.2070289 91.4335953,40.8359388 91.1289062,40.5703125 C90.8242172,40.3046862 90.4335961,40.1601564 89.9570312,40.1367188 L87.1679688,40.125 L86.3125,45.0351562 Z" id="path-1"/><filter x="-14.7%" y="-14.7%" width="141.3%" height="141%" filterUnits="objectBoundingBox" id="filter-2"><feOffset dx="1" dy="1" in="SourceAlpha" result="shadowOffsetOuter1"/><feGaussianBlur stdDeviation="1" in="shadowOffsetOuter1" result="shadowBlurOuter1"/><feComposite in="shadowBlurOuter1" in2="SourceAlpha" operator="out" result="shadowBlurOuter1"/><feColorMatrix values="0 0 0 0 0 0 0 0 0 0 0 0 0 0 0 0 0 0 0.35 0" type="matrix" in="shadowBlurOuter1"/></filter></defs><g id="Page-1" stroke="none" stroke-width="1" fill="none" fill-rule="evenodd"><g id="Artboard" transform="translate(-78.000000, -35.000000)"><g id="₽"><use fill="#000" fill-opacity="1" filter="url(#filter-2)" xlink:href="#path-1"/><use fill-opacity=".99" fill="#FFF" fill-rule="evenodd" xlink:href="#path-1"/></g></g></g></svg>