<svg xmlns="http://www.w3.org/2000/svg" viewBox="0 0 8.4666665 10.583333625" version="1.1" x="0px" y="0px">
    <g transform="translate(0,-288.53332)">
        <path style="color:#000000;font-style:normal;font-variant:normal;font-weight:normal;font-stretch:normal;font-size:medium;line-height:normal;font-family:sans-serif;text-indent:0;text-align:start;text-decoration:none;text-decoration-line:none;text-decoration-style:solid;text-decoration-color:#000000;letter-spacing:normal;word-spacing:normal;text-transform:none;direction:ltr;block-progression:tb;writing-mode:lr-tb;baseline-shift:baseline;text-anchor:start;white-space:normal;clip-rule:nonzero;display:inline;overflow:visible;visibility:visible;opacity:1;isolation:auto;mix-blend-mode:normal;color-interpolation:sRGB;color-interpolation-filters:linearRGB;solid-color:#000000;solid-opacity:1;fill:#000000;fill-opacity:1;fill-rule:evenodd;stroke:none;stroke-width:0.26458335px;stroke-linecap:round;stroke-linejoin:round;stroke-miterlimit:4;stroke-dasharray:none;stroke-dashoffset:0;stroke-opacity:1;color-rendering:auto;image-rendering:auto;shape-rendering:auto;text-rendering:auto;enable-background:accumulate"
              d="M 10.003906,4.5 C 9.986306,4.4997224 9.968703,4.5003744 9.951172,4.50195 9.5712368,4.53948 9.3718096,4.971752 9.5898439,5.2851531 l 5.4824221,8.2167969 -12.5625003,0 c -0.016916,-8.6e-4 -0.033865,-8.6e-4 -0.050781,0 -0.6145403,0.07697 -0.5684008,0.982018 0.050781,0.996094 l 1.59375,0 2.3710938,10.291015 c 0.3658696,1.585361 1.7831192,2.709023 3.4101562,2.708985 l 12.2304683,0 c 1.627037,3.8e-5 3.046239,-1.123624 3.41211,-2.708985 l 2.36914,-10.291015 1.59375,0 c 0.726349,0.06521 0.726349,-1.061302 0,-0.996094 l -13.222656,0 -5.84375,-8.7714843 C 10.332149,4.58724 10.173963,4.5004215 10.003906,4.5 Z m -4.8730466,9.998047 21.7382816,0 -2.316407,10.060547 C 24.290337,25.695589 23.28212,26.5 22.115234,26.5 l -12.2304684,0 c -1.1668864,0 -2.1731498,-0.804411 -2.4355468,-1.941406 z"
              transform="matrix(0.26458334,0,0,0.26458336,-2.5232634e-7,288.53332)"/>
        <path style="color:#000000;font-style:normal;font-variant:normal;font-weight:normal;font-stretch:normal;font-size:medium;line-height:normal;font-family:sans-serif;text-indent:0;text-align:start;text-decoration:none;text-decoration-line:none;text-decoration-style:solid;text-decoration-color:#000000;letter-spacing:normal;word-spacing:normal;text-transform:none;direction:ltr;block-progression:tb;writing-mode:lr-tb;baseline-shift:baseline;text-anchor:start;white-space:normal;clip-rule:nonzero;display:inline;overflow:visible;visibility:visible;opacity:1;isolation:auto;mix-blend-mode:normal;color-interpolation:sRGB;color-interpolation-filters:linearRGB;solid-color:#000000;solid-opacity:1;fill:#000000;fill-opacity:1;fill-rule:evenodd;stroke:none;stroke-width:0.26458335px;stroke-linecap:round;stroke-linejoin:round;stroke-miterlimit:4;stroke-dasharray:none;stroke-dashoffset:0;stroke-opacity:1;color-rendering:auto;image-rendering:auto;shape-rendering:auto;text-rendering:auto;enable-background:accumulate"
              d="m 6.0175781,293.0293 a 0.1323049,0.1323049 0 0 0 -0.1289062,0.10742 l -0.3300781,1.6543 a 0.13253171,0.13253171 0 1 0 0.2597656,0.0527 l 0.3300781,-1.6543 A 0.1323049,0.1323049 0 0 0 6.0175781,293.0293 Z"/>
        <path style="color:#000000;font-style:normal;font-variant:normal;font-weight:normal;font-stretch:normal;font-size:medium;line-height:normal;font-family:sans-serif;text-indent:0;text-align:start;text-decoration:none;text-decoration-line:none;text-decoration-style:solid;text-decoration-color:#000000;letter-spacing:normal;word-spacing:normal;text-transform:none;direction:ltr;block-progression:tb;writing-mode:lr-tb;baseline-shift:baseline;text-anchor:start;white-space:normal;clip-rule:nonzero;display:inline;overflow:visible;visibility:visible;opacity:1;isolation:auto;mix-blend-mode:normal;color-interpolation:sRGB;color-interpolation-filters:linearRGB;solid-color:#000000;solid-opacity:1;fill:#000000;fill-opacity:1;fill-rule:evenodd;stroke:none;stroke-width:0.26458335px;stroke-linecap:round;stroke-linejoin:round;stroke-miterlimit:4;stroke-dasharray:none;stroke-dashoffset:0;stroke-opacity:1;color-rendering:auto;image-rendering:auto;shape-rendering:auto;text-rendering:auto;enable-background:accumulate"
              d="m 2.4316406,293.0293 a 0.1323049,0.1323049 0 0 0 -0.1132812,0.16015 l 0.3300781,1.6543 a 0.13253171,0.13253171 0 0 0 0.2597656,-0.0527 l -0.3320312,-1.6543 A 0.1323049,0.1323049 0 0 0 2.4316406,293.0293 Z"/>
        <path style="color:#000000;font-style:normal;font-variant:normal;font-weight:normal;font-stretch:normal;font-size:medium;line-height:normal;font-family:sans-serif;text-indent:0;text-align:start;text-decoration:none;text-decoration-line:none;text-decoration-style:solid;text-decoration-color:#000000;letter-spacing:normal;word-spacing:normal;text-transform:none;direction:ltr;block-progression:tb;writing-mode:lr-tb;baseline-shift:baseline;text-anchor:start;white-space:normal;clip-rule:nonzero;display:inline;overflow:visible;visibility:visible;opacity:1;isolation:auto;mix-blend-mode:normal;color-interpolation:sRGB;color-interpolation-filters:linearRGB;solid-color:#000000;solid-opacity:1;fill:#000000;fill-opacity:1;fill-rule:evenodd;stroke:none;stroke-width:0.26458335px;stroke-linecap:round;stroke-linejoin:round;stroke-miterlimit:4;stroke-dasharray:none;stroke-dashoffset:0;stroke-opacity:1;color-rendering:auto;image-rendering:auto;shape-rendering:auto;text-rendering:auto;enable-background:accumulate"
              d="m 4.8164062,293.0293 a 0.1323049,0.1323049 0 0 0 -0.1191406,0.11914 l -0.1992187,1.65234 a 0.13275865,0.13275865 0 1 0 0.2636719,0.0312 l 0.1992187,-1.65234 A 0.1323049,0.1323049 0 0 0 4.8164062,293.0293 Z"/>
        <path style="color:#000000;font-style:normal;font-variant:normal;font-weight:normal;font-stretch:normal;font-size:medium;line-height:normal;font-family:sans-serif;text-indent:0;text-align:start;text-decoration:none;text-decoration-line:none;text-decoration-style:solid;text-decoration-color:#000000;letter-spacing:normal;word-spacing:normal;text-transform:none;direction:ltr;block-progression:tb;writing-mode:lr-tb;baseline-shift:baseline;text-anchor:start;white-space:normal;clip-rule:nonzero;display:inline;overflow:visible;visibility:visible;opacity:1;isolation:auto;mix-blend-mode:normal;color-interpolation:sRGB;color-interpolation-filters:linearRGB;solid-color:#000000;solid-opacity:1;fill:#000000;fill-opacity:1;fill-rule:evenodd;stroke:none;stroke-width:0.26458335px;stroke-linecap:round;stroke-linejoin:round;stroke-miterlimit:4;stroke-dasharray:none;stroke-dashoffset:0;stroke-opacity:1;color-rendering:auto;image-rendering:auto;shape-rendering:auto;text-rendering:auto;enable-background:accumulate"
              d="m 3.6328125,293.0293 a 0.1323049,0.1323049 0 0 0 -0.1269531,0.15039 l 0.1992187,1.65234 A 0.13275865,0.13275865 0 0 0 3.96875,294.80078 L 3.7695312,293.14844 A 0.1323049,0.1323049 0 0 0 3.6328125,293.0293 Z"/>
    </g>
</svg>