<svg width="18" height="18" viewBox="0 0 18 18" version="1.1" xmlns="http://www.w3.org/2000/svg" xmlns:xlink="http://www.w3.org/1999/xlink"><g transform="translate(-137.000000, -213.000000)" fill="#16181C" stroke="none" stroke-width="1" fill-rule="evenodd" fill-opacity=".9"><path d="M147.105469,228.726562 L143.496094,228.726562 L143.085938,231 L139.652344,231 L140.0625,228.726562 L137.742188,228.726562 L138.246094,225.878906 L140.542969,225.878906 L140.707031,224.988281 L138.386719,224.988281 L138.890625,222.140625 L141.199219,222.140625 L142.617188,213.9375 L148.570312,213.949219 C150.421884,213.949219 151.874995,214.45312 152.929688,215.460938 C153.98438,216.468755 154.453126,217.792961 154.335938,219.433594 C154.210937,221.121102 153.511725,222.470698 152.238281,223.482422 C150.964837,224.494146 149.339854,225 147.363281,225 L144.140625,224.988281 L143.976562,225.878906 L147.597656,225.878906 L147.105469,228.726562 Z M144.632812,222.140625 L147.375,222.164062 C148.335942,222.164062 149.124997,221.92969 149.742188,221.460938 C150.359378,220.992185 150.734374,220.324223 150.867188,219.457031 C150.976563,218.691402 150.845705,218.066409 150.474609,217.582031 C150.103514,217.097654 149.539066,216.839844 148.78125,216.808594 L145.558594,216.796875 L144.632812,222.140625 Z" id="₽"/></g></svg>